# xmcd
#
# Track frame offsets:
# 150
# 20987
# 49205
# 67662
# 107008
# 121499
# 140445
# 181675
#
# Disc length: 3024 seconds
#
#
# Revision: 0
# Processed by: cddbd v1.5.2PL0 Copyright (c) Steve Scherf et al.
# Submitted via: FreeRIP 2.951 
#
DISCID=6a0bce08
DTITLE=Van Morrison - It´s too Late to Stop now
DYEAR=1974
DGENRE=Blues
TTITLE0=Bring it on Home
TTITLE1=Saint Dominic´s Preview
TTITLE2=Take your Hand out of my Pocket
TTITLE3=Listen to the Lion
TTITLE4=Here comes the Night
TTITLE5=Gloria
TTITLE6=Caravan
TTITLE7=Cypress Avenue
EXTD=Live in LA and London Summer 1973.
EXTT0=
EXTT1=
EXTT2=
EXTT3=
EXTT4=
EXTT5=
EXTT6=
EXTT7=
PLAYORDER=
